<svg width="28" height="132" viewBox="0 0 28 132" fill="none" xmlns="http://www.w3.org/2000/svg">
    <g clip-path="url(#clip0_2_7280)">
        <path d="M16.3334 119.75H19.25L20.4167 115.083H16.3334V112.75C16.3334 111.548 16.3334 110.417 18.6667 110.417H20.4167V106.497C20.0364 106.446 18.6002 106.333 17.0835 106.333C13.916 106.333 11.6667 108.266 11.6667 111.817V115.083H8.16669V119.75H11.6667V129.667H16.3334V119.75Z" fill="#131212"/>
    </g>
    <g clip-path="url(#clip1_2_7280)">
        <path d="M25.8557 58.5987C24.965 58.9926 24.0205 59.2514 23.0533 59.3663C24.0727 58.7567 24.8357 57.7972 25.2 56.6667C24.2433 57.236 23.1945 57.635 22.1013 57.8508C21.367 57.0652 20.3938 56.5441 19.3328 56.3687C18.2718 56.1932 17.1826 56.3732 16.2345 56.8807C15.2864 57.3882 14.5325 58.1946 14.09 59.1748C13.6475 60.1549 13.5412 61.2537 13.7877 62.3005C11.8476 62.2033 9.94972 61.6991 8.21717 60.8208C6.48462 59.9424 4.95615 58.7096 3.731 57.2022C3.29734 57.947 3.06945 58.7938 3.07067 59.6557C3.07067 61.3473 3.93167 62.8418 5.24067 63.7168C4.46601 63.6925 3.7084 63.4833 3.031 63.1067V63.1673C3.03123 64.294 3.4211 65.3859 4.13449 66.2579C4.84788 67.1299 5.8409 67.7284 6.94517 67.9518C6.22605 68.1467 5.47203 68.1754 4.74017 68.0358C5.05151 69.0056 5.65834 69.8537 6.47569 70.4615C7.29304 71.0692 8.27998 71.4061 9.29833 71.425C8.28623 72.2199 7.12737 72.8075 5.88803 73.1542C4.64868 73.5009 3.35315 73.6 2.0755 73.4457C4.30581 74.88 6.90211 75.6415 9.55383 75.639C18.529 75.639 23.4372 68.2038 23.4372 61.7557C23.4372 61.5457 23.4313 61.3333 23.422 61.1257C24.3773 60.4352 25.2019 59.5799 25.8568 58.5998L25.8557 58.5987Z" fill="#131212"/>
    </g>
    <g clip-path="url(#clip2_2_7280)">
        <path d="M14 2.33334C17.1698 2.33334 17.5653 2.34501 18.809 2.40334C20.0515 2.46168 20.8973 2.65651 21.6416 2.94584C22.4116 3.24218 23.0603 3.64351 23.709 4.29101C24.3022 4.87422 24.7613 5.5797 25.0541 6.35834C25.3423 7.10151 25.5383 7.94851 25.5966 9.19101C25.6515 10.4347 25.6666 10.8302 25.6666 14C25.6666 17.1698 25.655 17.5653 25.5966 18.809C25.5383 20.0515 25.3423 20.8973 25.0541 21.6417C24.7621 22.4207 24.303 23.1264 23.709 23.709C23.1256 24.3021 22.4202 24.7611 21.6416 25.0542C20.8985 25.3423 20.0515 25.5383 18.809 25.5967C17.5653 25.6515 17.1698 25.6667 14 25.6667C10.8301 25.6667 10.4346 25.655 9.19098 25.5967C7.94848 25.5383 7.10265 25.3423 6.35831 25.0542C5.57936 24.7619 4.87376 24.3028 4.29098 23.709C3.69762 23.1259 3.23857 22.4204 2.94581 21.6417C2.65648 20.8985 2.46165 20.0515 2.40331 18.809C2.34848 17.5653 2.33331 17.1698 2.33331 14C2.33331 10.8302 2.34498 10.4347 2.40331 9.19101C2.46165 7.94734 2.65648 7.10268 2.94581 6.35834C3.23776 5.57922 3.69692 4.87355 4.29098 4.29101C4.87393 3.69745 5.57948 3.23836 6.35831 2.94584C7.10265 2.65651 7.94731 2.46168 9.19098 2.40334C10.4346 2.34851 10.8301 2.33334 14 2.33334ZM14 8.16668C12.4529 8.16668 10.9692 8.78126 9.87519 9.87522C8.78123 10.9692 8.16665 12.4529 8.16665 14C8.16665 15.5471 8.78123 17.0308 9.87519 18.1248C10.9692 19.2188 12.4529 19.8333 14 19.8333C15.5471 19.8333 17.0308 19.2188 18.1248 18.1248C19.2187 17.0308 19.8333 15.5471 19.8333 14C19.8333 12.4529 19.2187 10.9692 18.1248 9.87522C17.0308 8.78126 15.5471 8.16668 14 8.16668ZM21.5833 7.87501C21.5833 7.48824 21.4297 7.1173 21.1562 6.84381C20.8827 6.57032 20.5118 6.41668 20.125 6.41668C19.7382 6.41668 19.3673 6.57032 19.0938 6.84381C18.8203 7.1173 18.6666 7.48824 18.6666 7.87501C18.6666 8.26178 18.8203 8.63272 19.0938 8.90621C19.3673 9.1797 19.7382 9.33334 20.125 9.33334C20.5118 9.33334 20.8827 9.1797 21.1562 8.90621C21.4297 8.63272 21.5833 8.26178 21.5833 7.87501ZM14 10.5C14.9282 10.5 15.8185 10.8688 16.4749 11.5251C17.1312 12.1815 17.5 13.0718 17.5 14C17.5 14.9283 17.1312 15.8185 16.4749 16.4749C15.8185 17.1313 14.9282 17.5 14 17.5C13.0717 17.5 12.1815 17.1313 11.5251 16.4749C10.8687 15.8185 10.5 14.9283 10.5 14C10.5 13.0718 10.8687 12.1815 11.5251 11.5251C12.1815 10.8688 13.0717 10.5 14 10.5Z" fill="#131212"/>
    </g>
    <defs>
        <clipPath id="clip0_2_7280">
            <rect width="28" height="28" fill="white" transform="translate(0 104)"/>
        </clipPath>
        <clipPath id="clip1_2_7280">
            <rect width="28" height="28" fill="white" transform="translate(0 52)"/>
        </clipPath>
        <clipPath id="clip2_2_7280">
            <rect width="28" height="28" fill="white"/>
        </clipPath>
    </defs>
</svg>
